<?xml version="1.0" standalone="no"?>
<!DOCTYPE svg PUBLIC "-//W3C//DTD SVG 20010904//EN"
 "http://www.w3.org/TR/2001/REC-SVG-20010904/DTD/svg10.dtd">
<svg version="1.0" xmlns="http://www.w3.org/2000/svg"
 width="512.000000pt" height="512.000000pt" viewBox="0 0 512.000000 512.000000"
 preserveAspectRatio="xMidYMid meet">

<g transform="translate(0.000000,512.000000) scale(0.100000,-0.100000)"
fill="#000000" stroke="none">
<path d="M2500 4740 c-86 -28 -1700 -755 -1721 -776 -50 -48 -51 -59 -46 -795
5 -738 8 -790 63 -1039 134 -599 480 -1094 1009 -1440 144 -94 419 -229 570
-280 161 -53 209 -53 368 0 409 138 813 407 1085 725 330 384 506 830 552
1389 14 182 13 1327 -1 1377 -7 21 -24 49 -38 63 -15 15 -383 183 -882 405
-884 393 -887 394 -959 371z m166 -911 c233 -43 406 -229 437 -469 26 -211
-69 -416 -247 -532 -91 -58 -171 -80 -296 -80 -125 0 -205 22 -296 80 -270
175 -332 539 -137 804 113 154 333 235 539 197z m163 -1475 c118 -20 211 -49
306 -93 146 -69 242 -155 302 -271 25 -50 28 -64 28 -160 0 -95 -3 -110 -28
-162 -78 -158 -259 -281 -507 -343 -350 -88 -757 -43 -1025 114 -83 48 -185
152 -221 226 -26 55 -29 69 -29 165 0 96 3 110 28 160 110 213 382 351 757
384 79 7 299 -4 389 -20z"/>
</g>
</svg>
