<svg width="397" height="397" viewBox="0 0 397 397" fill="none" xmlns="http://www.w3.org/2000/svg">
<circle cx="198.5" cy="198.5" r="198.5" fill="white"/>
<path fill-rule="evenodd" clip-rule="evenodd" d="M168.158 157.174C164.988 161.824 165.767 167.265 170.605 174.255C173.028 177.758 175.012 181.427 175.012 182.412C175.012 183.396 175.578 183.841 176.271 183.401C178.789 181.802 177.594 173.288 174.13 168.153C172.061 165.087 170.731 161.388 170.731 158.707C170.731 156.281 170.593 154.299 170.425 154.299C170.256 154.299 169.236 155.592 168.158 157.174ZM226.314 157.458C226.692 159.485 225.499 163.138 222.992 167.64C218.981 174.842 218.193 179.34 220.341 182.754C221.012 183.822 221.57 184.032 221.581 183.223C221.591 182.413 223.504 178.908 225.832 175.432C231.62 166.787 232.212 164.263 229.715 158.859C227.285 153.598 225.455 152.845 226.314 157.458ZM163.779 171.905C163.715 174.518 164.97 177.6 167.355 180.682C172.382 187.182 173.852 184.101 169.038 177.15C166.986 174.185 164.985 170.887 164.592 169.82C164.199 168.753 163.833 169.692 163.779 171.905ZM229.447 174.313C227.208 177.574 225.377 181.514 225.377 183.066C225.377 185.6 225.764 185.429 229.136 181.412C231.202 178.949 233.241 175.65 233.665 174.079C235.2 168.405 233.433 168.503 229.447 174.313ZM143.316 193.134C140.544 194.816 139.228 201.313 140.978 204.673C141.743 206.141 145.606 209.107 149.562 211.265C153.517 213.422 158.737 216.671 161.161 218.486C164.991 221.353 166.578 221.721 173.287 221.297C179.32 220.915 182.002 220.028 185.575 217.227C191.207 212.815 194.972 205.502 195.436 198.078L195.787 192.455L170.605 192.156C155.739 191.981 144.559 192.382 143.316 193.134ZM201.454 196.834C201.454 205.798 206.84 215.195 214.187 219.046C222.033 223.157 230.142 222.441 238.11 216.934C241.789 214.39 246.589 211.541 248.775 210.602C256.389 207.335 259.137 199.326 254.338 194.395C251.987 191.981 250.141 191.809 226.636 191.809H201.454V196.834ZM149.703 203.818C149.807 205.735 149.401 205.892 147.31 204.743C144.52 203.209 143.858 197.528 146.366 196.642C147.929 196.091 149.462 199.389 149.703 203.818ZM253.078 200.061C253.078 201.945 248.36 206.794 247.444 205.853C247.123 205.523 247.197 203.121 247.609 200.513C248.265 196.364 248.653 195.933 250.719 197.069C252.017 197.783 253.078 199.129 253.078 200.061Z" fill="black"/>
<path fill-rule="evenodd" clip-rule="evenodd" d="M167.311 233.882C164.383 235.922 159.448 239.986 156.343 242.913C148.818 250.004 143.528 252.228 138.32 250.485C133.537 248.885 131.529 246.655 132.518 244.043C133.381 241.761 137.816 241.453 139.865 243.53C140.969 244.65 141.285 244.536 141.285 243.018C141.285 240.429 135.73 236.094 132.414 236.094C128.604 236.094 123.539 241.698 123.539 245.913C123.539 252.155 126.126 255.735 135.122 261.942C135.31 262.073 134.431 264.002 133.167 266.229C130.214 271.429 129.137 276.986 130.64 279.274C131.626 280.778 131.94 280.631 132.55 278.375C132.951 276.891 133.75 275.676 134.325 275.676C135.967 275.676 135.549 281.91 133.499 288.01C131.132 295.054 131.677 299.59 134.251 294.268C135.21 292.289 136.518 290.79 137.159 290.939C137.802 291.087 138.728 295.675 139.217 301.135C140.039 310.295 141.888 317.657 143.368 317.657C143.705 317.657 144.695 316.712 145.568 315.558C146.955 313.723 147.304 313.686 148.342 315.258C148.995 316.248 149.537 318.745 149.548 320.809C149.557 322.872 150.364 325.232 151.34 326.053C152.789 327.272 153.115 327.202 153.115 325.671C153.115 321.671 155.449 322.634 157.608 327.524C158.851 330.344 160.944 333.616 162.257 334.797C164.563 336.871 164.667 336.858 165.299 334.408C165.845 332.289 166.342 332.082 168.314 333.153C169.613 333.857 171.383 335.144 172.247 336.012C173.11 336.881 176.541 339.089 179.869 340.921C183.197 342.751 188.646 346.668 191.98 349.625L198.04 355L203.674 350.143C210.208 344.513 229.592 332.025 230.449 332.895C230.77 333.219 230.745 334.242 230.395 335.167C230.045 336.092 230.255 336.849 230.862 336.849C232.741 336.849 236.788 331.681 238.848 326.653C240.674 322.195 240.928 322.012 242.432 324.074C244.613 327.064 246.571 325.564 246.592 320.885C246.603 318.78 247.114 316.25 247.729 315.264C248.692 313.72 249.077 313.791 250.507 315.772C252.113 318 252.229 317.975 254.173 314.968C255.504 312.91 256.413 308.193 256.875 300.967C257.258 294.973 258.012 290.07 258.549 290.07C259.087 290.07 260.425 291.823 261.523 293.968C264.273 299.341 264.889 296.268 262.636 288.409C261.61 284.831 260.782 280.367 260.797 278.49L260.823 275.076L262.98 277.921C264.885 280.432 265.229 280.525 265.911 278.725C266.888 276.145 265.744 271.424 262.889 266.251C260.756 262.384 260.753 262.158 262.789 260.592C263.956 259.694 265.291 258.942 265.756 258.922C267.67 258.836 272.601 249.661 272.601 246.186C272.601 237.768 262.818 233.052 257.427 238.869C253.957 242.615 254.185 243.366 258.524 242.487C265.905 240.99 265.276 247.99 257.805 250.49C254.208 251.694 252.954 251.539 248.628 249.357C245.871 247.967 240.422 243.854 236.518 240.217C227.628 231.936 224.04 230.096 216.778 230.096C209.607 230.096 203.976 232.403 200.635 236.71L198.07 240.016L195.595 236.825C192.275 232.547 186.067 230.088 178.701 230.135C173.894 230.165 171.53 230.942 167.311 233.882ZM200.488 254.785C202.291 258.2 209.173 262.61 216.253 264.888C218.771 265.698 220.368 266.703 219.802 267.12C219.236 267.538 218.186 268.959 217.469 270.278C216.752 271.598 214.889 272.858 213.329 273.079C211.768 273.3 209.987 273.974 209.368 274.578C207.571 276.333 202.586 275.849 200.234 273.691C198.302 271.919 197.848 271.899 196 273.509C192.75 276.339 190.247 276.827 187.821 275.104C186.589 274.229 184.32 273.325 182.778 273.096C181.237 272.866 179.388 271.598 178.671 270.278C177.954 268.959 176.835 267.482 176.184 266.998C175.469 266.465 175.636 266.11 176.606 266.098C180.535 266.054 193.359 258.617 195.324 255.244C197.857 250.896 198.409 250.847 200.488 254.785Z" fill="black"/>
<path fill-rule="evenodd" clip-rule="evenodd" d="M217.977 40.4913C208.985 43.8254 200.14 49.8082 200.14 52.5554C200.14 54.3605 182.215 63.2393 165.655 69.6362C143.064 78.3639 129.219 85.4197 121.878 91.951C117.185 96.1252 115.211 97.2246 114.215 96.2188C113.22 95.2143 113.776 93.9097 116.374 91.1577C123.597 83.5054 136.983 75.9683 163.904 64.3963C178.928 57.9382 191.731 52.157 192.351 51.5485C194.109 49.8286 184.087 50.2139 173.385 52.2794C160.608 54.7445 142.341 61.169 133.9 66.1666C119.564 74.6542 104.499 93.1032 97.5742 110.651C95.5052 115.897 95.0402 119.655 95.0033 131.455C94.9629 144.505 95.2495 146.488 98.057 152.579C103.99 165.453 127.911 198.058 131.426 198.062C135.084 198.066 136.047 194.109 134.046 187.307C130.53 175.357 132.822 172.304 146.522 170.686L153.511 169.86L163.007 157.617C168.231 150.883 178.233 137.247 185.234 127.313C192.236 117.379 198.327 109.251 198.769 109.251C200.569 109.251 237.365 147.907 246.378 159.267C253.515 168.261 256.979 171.681 259.533 172.246C265.303 173.525 266.272 175.731 263.939 182.278C262.203 187.152 262.136 188.572 263.467 192.448L265.012 196.954L271.638 190.609L278.263 184.262L276.757 179.237C275.928 176.473 272.807 169.331 269.822 163.366C256.505 136.757 239.409 118.656 216.461 106.868C209.773 103.432 204.096 100.419 203.844 100.173C203.592 99.9261 204.241 98.4067 205.287 96.7961C209.337 90.5564 234.249 89.1858 253.651 94.1353C265.636 97.1921 279.33 102.462 282.033 105.058C284.656 107.576 282.644 109.374 278.878 107.877C259.173 100.051 243.569 96.0532 232.71 96.0508C224.635 96.0496 215.599 97.347 215.599 98.5099C215.599 99.0236 219.21 101.473 223.625 103.954C234.704 110.18 242.387 116.102 250.15 124.395C256.473 131.152 266.731 144.413 266.731 145.829C266.731 146.201 267.985 148.519 269.515 150.981C271.047 153.443 274.061 160.184 276.213 165.959C278.366 171.736 280.574 176.461 281.12 176.461C282.945 176.461 291.452 163.95 294.994 156.058C298.535 148.169 300.482 140.895 301.806 130.617C303.041 121.029 298.153 99.0932 293.629 93.9265C287.882 87.3604 259.101 83.1778 240.68 86.231C236.368 86.9451 229.168 87.8764 224.679 88.2989C213.683 89.3358 214.473 86.9007 226.392 83.0193C233.305 80.769 238.756 80.0153 251.531 79.5437C268.186 78.9292 274.845 79.7837 283.716 83.6758C289.987 86.4266 291.729 84.516 288.202 78.7563C284.863 73.3028 280.388 70.1139 273.449 68.2404C268.758 66.9743 266.372 67.0763 257.521 68.9245C247.378 71.0428 238.849 73.478 234.03 75.6299C219.603 82.0736 217.977 82.5129 217.977 79.9733C217.977 77.2885 238.895 67.7292 250.825 64.9616C256.793 63.5778 264.685 62.4448 268.365 62.4448C272.044 62.4448 275.055 62.0104 275.055 61.4799C275.055 59.4864 267.09 53.1915 260.786 50.2031C246.767 43.5554 223.776 38.3406 217.977 40.4913Z" fill="#FF7D01"/>
</svg>
