<svg width="207" height="315" viewBox="0 0 207 315" fill="none" xmlns="http://www.w3.org/2000/svg">
<path fill-rule="evenodd" clip-rule="evenodd" d="M73.1581 117.174C69.9876 121.824 70.767 127.265 75.6046 134.255C78.0284 137.758 80.0116 141.427 80.0116 142.412C80.0116 143.396 80.5782 143.841 81.2707 143.401C83.789 141.802 82.5941 133.288 79.1302 128.153C77.0614 125.087 75.7305 121.388 75.7305 118.707C75.7305 116.281 75.5933 114.299 75.4245 114.299C75.2558 114.299 74.2359 115.592 73.1581 117.174ZM131.314 117.458C131.692 119.485 130.499 123.138 127.992 127.64C123.981 134.842 123.193 139.34 125.341 142.754C126.012 143.822 126.57 144.032 126.581 143.223C126.591 142.413 128.504 138.908 130.832 135.432C136.62 126.787 137.212 124.263 134.715 118.859C132.285 113.598 130.455 112.845 131.314 117.458ZM68.7788 131.905C68.7146 134.518 69.9699 137.6 72.3547 140.682C77.3825 147.182 78.8519 144.101 74.0382 137.15C71.9858 134.185 69.985 130.887 69.5922 129.82C69.1993 128.753 68.8329 129.692 68.7788 131.905ZM134.447 134.313C132.208 137.574 130.377 141.514 130.377 143.066C130.377 145.6 130.764 145.429 134.136 141.412C136.202 138.949 138.241 135.65 138.665 134.079C140.2 128.405 138.433 128.503 134.447 134.313ZM48.3165 153.134C45.5438 154.816 44.228 161.313 45.9782 164.673C46.7425 166.141 50.6056 169.107 54.5618 171.265C58.5168 173.422 63.7372 176.671 66.161 178.486C69.9913 181.353 71.5778 181.721 78.2866 181.297C84.3204 180.915 87.0023 180.028 90.5745 177.227C96.2067 172.815 99.9715 165.502 100.436 158.078L100.787 152.455L75.6046 152.156C60.7392 151.981 49.5592 152.382 48.3165 153.134ZM106.454 156.834C106.454 165.798 111.84 175.195 119.187 179.046C127.033 183.157 135.142 182.441 143.11 176.934C146.789 174.39 151.589 171.541 153.775 170.602C161.389 167.335 164.137 159.326 159.338 154.395C156.987 151.981 155.141 151.809 131.636 151.809H106.454V156.834ZM54.7028 163.818C54.8073 165.735 54.4006 165.892 52.3105 164.743C49.5202 163.209 48.8579 157.528 51.3661 156.642C52.9287 156.091 54.4623 159.389 54.7028 163.818ZM158.078 160.061C158.078 161.945 153.36 166.794 152.444 165.853C152.123 165.523 152.197 163.121 152.609 160.513C153.265 156.364 153.653 155.933 155.719 157.069C157.017 157.783 158.078 159.129 158.078 160.061Z" fill="black"/>
<path fill-rule="evenodd" clip-rule="evenodd" d="M72.3112 193.882C69.3832 195.922 64.4476 199.986 61.3433 202.913C53.818 210.004 48.5275 212.228 43.3198 210.485C38.5368 208.885 36.5292 206.655 37.5183 204.043C38.3807 201.761 42.8159 201.453 44.8649 203.53C45.9686 204.65 46.2845 204.536 46.2845 203.018C46.2845 200.429 40.7302 196.094 37.4142 196.094C33.6036 196.094 28.5391 201.698 28.5391 205.913C28.5391 212.155 31.1263 215.735 40.1221 221.942C40.3102 222.073 39.4312 224.002 38.1666 226.229C35.2137 231.429 34.1372 236.986 35.6396 239.274C36.6263 240.778 36.9398 240.631 37.5502 238.375C37.9512 236.891 38.7498 235.676 39.3247 235.676C40.9668 235.676 40.5492 241.91 38.499 248.01C36.1317 255.054 36.6771 259.59 39.2514 254.268C40.2097 252.289 41.5181 250.79 42.1593 250.939C42.8017 251.087 43.728 255.675 44.2166 261.135C45.0388 270.295 46.8879 277.657 48.3678 277.657C48.705 277.657 49.6952 276.712 50.5683 275.558C51.9548 273.723 52.3038 273.686 53.3425 275.258C53.9955 276.248 54.5373 278.745 54.548 280.809C54.5574 282.872 55.3643 285.232 56.3403 286.053C57.7895 287.272 58.1148 287.202 58.1148 285.671C58.1148 281.671 60.4489 282.634 62.608 287.524C63.8513 290.344 65.9441 293.616 67.2573 294.797C69.563 296.871 69.6671 296.858 70.2988 294.408C70.8454 292.289 71.3423 292.082 73.3144 293.153C74.6133 293.857 76.3832 295.144 77.2468 296.012C78.1104 296.881 81.5412 299.089 84.869 300.921C88.1969 302.751 93.6459 306.668 96.9797 309.625L103.04 315L108.674 310.143C115.208 304.513 134.592 292.025 135.449 292.895C135.77 293.219 135.745 294.242 135.395 295.167C135.045 296.092 135.255 296.849 135.862 296.849C137.741 296.849 141.788 291.681 143.848 286.653C145.674 282.195 145.928 282.012 147.432 284.074C149.613 287.064 151.571 285.564 151.592 280.885C151.603 278.78 152.114 276.25 152.729 275.264C153.692 273.72 154.077 273.791 155.507 275.772C157.113 278 157.229 277.975 159.173 274.968C160.504 272.91 161.413 268.193 161.875 260.967C162.258 254.973 163.012 250.07 163.549 250.07C164.087 250.07 165.425 251.823 166.523 253.968C169.273 259.341 169.889 256.268 167.636 248.409C166.61 244.831 165.782 240.367 165.797 238.49L165.823 235.076L167.98 237.921C169.885 240.432 170.229 240.525 170.911 238.725C171.888 236.145 170.744 231.424 167.889 226.251C165.756 222.384 165.753 222.158 167.789 220.592C168.956 219.694 170.291 218.942 170.756 218.922C172.67 218.836 177.601 209.661 177.601 206.186C177.601 197.768 167.818 193.052 162.427 198.869C158.957 202.615 159.185 203.366 163.524 202.487C170.905 200.99 170.276 207.99 162.805 210.49C159.208 211.694 157.954 211.539 153.628 209.357C150.871 207.967 145.422 203.854 141.518 200.217C132.628 191.936 129.04 190.096 121.778 190.096C114.607 190.096 108.976 192.403 105.635 196.71L103.07 200.016L100.595 196.825C97.2755 192.547 91.0669 190.088 83.7014 190.135C78.8935 190.165 76.5299 190.942 72.3112 193.882ZM105.488 214.785C107.291 218.2 114.173 222.61 121.253 224.888C123.771 225.698 125.368 226.703 124.802 227.12C124.236 227.538 123.186 228.959 122.469 230.278C121.752 231.598 119.889 232.858 118.329 233.079C116.768 233.3 114.987 233.974 114.368 234.578C112.571 236.333 107.586 235.849 105.234 233.691C103.302 231.919 102.848 231.899 101 233.509C97.7499 236.339 95.2466 236.827 92.8214 235.104C91.5886 234.229 89.3196 233.325 87.7781 233.096C86.2366 232.866 84.3875 231.598 83.6706 230.278C82.9537 228.959 81.8346 227.482 81.1839 226.998C80.4693 226.465 80.6361 226.11 81.6062 226.098C85.5351 226.054 98.3591 218.617 100.324 215.244C102.857 210.896 103.409 210.847 105.488 214.785Z" fill="black"/>
<path fill-rule="evenodd" clip-rule="evenodd" d="M122.977 0.491317C113.985 3.82539 105.14 9.80824 105.14 12.5554C105.14 14.3605 87.2152 23.2393 70.6554 29.6362C48.0643 38.3639 34.2193 45.4197 26.8776 51.951C22.1853 56.1252 20.2114 57.2246 19.2149 56.2188C18.2196 55.2143 18.7761 53.9097 21.3744 51.1577C28.5971 43.5054 41.9831 35.9683 68.9038 24.3963C83.9284 17.9382 96.7306 12.157 97.3513 11.5485C99.1088 9.82864 89.0869 10.2139 78.3847 12.2794C65.6075 14.7445 47.3413 21.169 38.8997 26.1666C24.5636 34.6542 9.49853 53.1032 2.57424 70.6509C0.505159 75.8968 0.0402093 79.6545 0.00334635 91.4546C-0.037084 104.505 0.249496 106.488 3.05703 112.579C8.98959 125.453 32.9113 158.058 36.4263 158.062C40.0841 158.066 41.0473 154.109 39.046 147.307C35.5297 135.357 37.8224 132.304 51.5223 130.686L58.5108 129.86L68.0072 117.617C73.231 110.883 83.2328 97.2466 90.2344 87.3128C97.236 77.379 103.327 69.2515 103.769 69.2515C105.569 69.2515 142.365 107.907 151.378 119.267C158.515 128.261 161.979 131.681 164.533 132.246C170.303 133.525 171.272 135.731 168.939 142.278C167.203 147.152 167.136 148.572 168.467 152.448L170.012 156.954L176.638 150.609L183.263 144.262L181.757 139.237C180.928 136.473 177.807 129.331 174.822 123.366C161.505 96.7569 144.409 78.656 121.461 66.8679C114.773 63.4318 109.096 60.4194 108.844 60.1734C108.592 59.9261 109.241 58.4067 110.287 56.7961C114.337 50.5564 139.249 49.1858 158.651 54.1353C170.636 57.1921 184.33 62.4621 187.033 65.0581C189.656 67.576 187.644 69.3739 183.878 67.8773C164.173 60.051 148.569 56.0532 137.71 56.0508C129.635 56.0496 120.599 57.347 120.599 58.5099C120.599 59.0236 124.21 61.4732 128.625 63.9539C139.704 70.1804 147.387 76.102 155.15 84.3952C161.473 91.1521 171.731 104.413 171.731 105.829C171.731 106.201 172.985 108.519 174.515 110.981C176.047 113.443 179.061 120.184 181.213 125.959C183.366 131.736 185.574 136.461 186.12 136.461C187.945 136.461 196.452 123.95 199.994 116.058C203.535 108.169 205.482 100.895 206.806 90.6169C208.041 81.0287 203.153 59.0932 198.629 53.9265C192.882 47.3604 164.101 43.1778 145.68 46.231C141.368 46.9451 134.168 47.8764 129.679 48.2989C118.683 49.3358 119.473 46.9007 131.392 43.0193C138.305 40.769 143.756 40.0153 156.531 39.5437C173.186 38.9292 179.845 39.7837 188.716 43.6758C194.987 46.4266 196.729 44.516 193.202 38.7563C189.863 33.3028 185.388 30.1139 178.449 28.2404C173.758 26.9743 171.372 27.0763 162.521 28.9245C152.378 31.0428 143.849 33.478 139.03 35.6299C124.603 42.0736 122.977 42.5129 122.977 39.9733C122.977 37.2885 143.895 27.7292 155.825 24.9616C161.793 23.5778 169.685 22.4448 173.365 22.4448C177.044 22.4448 180.055 22.0104 180.055 21.4799C180.055 19.4864 172.09 13.1915 165.786 10.2031C151.767 3.55535 128.776 -1.65939 122.977 0.491317Z" fill="#FF7D01"/>
</svg>
