<svg width="207" height="351" viewBox="0 0 207 351" fill="none" xmlns="http://www.w3.org/2000/svg">
<path fill-rule="evenodd" clip-rule="evenodd" d="M73.1581 117.174C69.9876 121.824 70.767 127.265 75.6046 134.255C78.0284 137.758 80.0116 141.427 80.0116 142.412C80.0116 143.396 80.5782 143.841 81.2707 143.401C83.789 141.802 82.5941 133.288 79.1302 128.153C77.0614 125.087 75.7305 121.388 75.7305 118.707C75.7305 116.281 75.5933 114.299 75.4245 114.299C75.2558 114.299 74.2359 115.592 73.1581 117.174ZM131.314 117.458C131.692 119.485 130.499 123.138 127.992 127.64C123.981 134.842 123.193 139.34 125.341 142.754C126.012 143.822 126.57 144.032 126.581 143.223C126.591 142.413 128.504 138.908 130.832 135.432C136.62 126.787 137.212 124.263 134.715 118.859C132.285 113.598 130.455 112.845 131.314 117.458ZM68.7788 131.905C68.7146 134.518 69.9699 137.6 72.3547 140.682C77.3825 147.182 78.8519 144.101 74.0382 137.15C71.9858 134.185 69.985 130.887 69.5922 129.82C69.1993 128.753 68.8329 129.692 68.7788 131.905ZM134.447 134.313C132.208 137.574 130.377 141.514 130.377 143.066C130.377 145.6 130.764 145.429 134.136 141.412C136.202 138.949 138.241 135.65 138.665 134.079C140.2 128.405 138.433 128.503 134.447 134.313ZM48.3165 153.134C45.5438 154.816 44.228 161.313 45.9782 164.673C46.7425 166.141 50.6056 169.107 54.5618 171.265C58.5168 173.422 63.7372 176.671 66.161 178.486C69.9913 181.353 71.5778 181.721 78.2866 181.297C84.3204 180.915 87.0023 180.028 90.5745 177.227C96.2067 172.815 99.9715 165.502 100.436 158.078L100.787 152.455L75.6046 152.156C60.7392 151.981 49.5592 152.382 48.3165 153.134ZM106.454 156.834C106.454 165.798 111.84 175.195 119.187 179.046C127.033 183.157 135.142 182.441 143.11 176.934C146.789 174.39 151.589 171.541 153.775 170.602C161.389 167.335 164.137 159.326 159.338 154.395C156.987 151.981 155.141 151.809 131.636 151.809H106.454V156.834ZM54.7028 163.818C54.8073 165.735 54.4006 165.892 52.3105 164.743C49.5202 163.209 48.8579 157.528 51.3661 156.642C52.9287 156.091 54.4623 159.389 54.7028 163.818ZM158.078 160.061C158.078 161.945 153.36 166.794 152.444 165.853C152.123 165.523 152.197 163.121 152.609 160.513C153.265 156.364 153.653 155.933 155.719 157.069C157.017 157.783 158.078 159.129 158.078 160.061Z" fill="black"/>
<path fill-rule="evenodd" clip-rule="evenodd" d="M72.3112 193.882C69.3832 195.922 64.4476 199.986 61.3433 202.913C53.818 210.004 48.5275 212.228 43.3198 210.485C38.5368 208.885 36.5292 206.655 37.5183 204.043C38.3807 201.761 42.8159 201.453 44.8649 203.53C45.9686 204.65 46.2845 204.536 46.2845 203.018C46.2845 200.429 40.7302 196.094 37.4142 196.094C33.6036 196.094 28.5391 201.698 28.5391 205.913C28.5391 212.155 31.1263 215.735 40.1221 221.942C40.3102 222.073 39.4312 224.002 38.1666 226.229C35.2137 231.429 34.1372 236.986 35.6396 239.274C36.6263 240.778 36.9398 240.631 37.5502 238.375C37.9512 236.891 38.7498 235.676 39.3247 235.676C40.9668 235.676 40.5492 241.91 38.499 248.01C36.1317 255.054 36.6771 259.59 39.2514 254.268C40.2097 252.289 41.5181 250.79 42.1593 250.939C42.8017 251.087 43.728 255.675 44.2166 261.135C45.0388 270.295 46.8879 277.657 48.3678 277.657C48.705 277.657 49.6952 276.712 50.5683 275.558C51.9548 273.723 52.3038 273.686 53.3425 275.258C53.9955 276.248 54.5373 278.745 54.548 280.809C54.5574 282.872 55.3643 285.232 56.3403 286.053C57.7895 287.272 58.1148 287.202 58.1148 285.671C58.1148 281.671 60.4489 282.634 62.608 287.524C63.8513 290.344 65.9441 293.616 67.2573 294.797C69.563 296.871 69.6671 296.858 70.2988 294.408C70.8454 292.289 71.3423 292.082 73.3144 293.153C74.6133 293.857 76.3832 295.144 77.2468 296.012C78.1104 296.881 81.5412 299.089 84.869 300.921C88.1969 302.751 93.6459 306.668 96.9797 309.625L103.04 315L108.674 310.143C115.208 304.513 134.592 292.025 135.449 292.895C135.77 293.219 135.745 294.242 135.395 295.167C135.045 296.092 135.255 296.849 135.862 296.849C137.741 296.849 141.788 291.681 143.848 286.653C145.674 282.195 145.928 282.012 147.432 284.074C149.613 287.064 151.571 285.564 151.592 280.885C151.603 278.78 152.114 276.25 152.729 275.264C153.692 273.72 154.077 273.791 155.507 275.772C157.113 278 157.229 277.975 159.173 274.968C160.504 272.91 161.413 268.193 161.875 260.967C162.258 254.973 163.012 250.07 163.549 250.07C164.087 250.07 165.425 251.823 166.523 253.968C169.273 259.341 169.889 256.268 167.636 248.409C166.61 244.831 165.782 240.367 165.797 238.49L165.823 235.076L167.98 237.921C169.885 240.432 170.229 240.525 170.911 238.725C171.888 236.145 170.744 231.424 167.889 226.251C165.756 222.384 165.753 222.158 167.789 220.592C168.956 219.694 170.291 218.942 170.756 218.922C172.67 218.836 177.601 209.661 177.601 206.186C177.601 197.768 167.818 193.052 162.427 198.869C158.957 202.615 159.185 203.366 163.524 202.487C170.905 200.99 170.275 207.99 162.805 210.49C159.208 211.694 157.954 211.539 153.628 209.357C150.871 207.967 145.422 203.854 141.518 200.217C132.628 191.936 129.04 190.096 121.778 190.096C114.607 190.096 108.976 192.403 105.635 196.71L103.07 200.016L100.595 196.825C97.2755 192.547 91.0669 190.088 83.7014 190.135C78.8935 190.165 76.5299 190.942 72.3112 193.882ZM105.488 214.785C107.291 218.2 114.173 222.61 121.253 224.888C123.771 225.698 125.368 226.703 124.802 227.12C124.236 227.538 123.186 228.959 122.469 230.278C121.752 231.598 119.889 232.858 118.329 233.079C116.768 233.3 114.987 233.974 114.368 234.578C112.571 236.333 107.586 235.849 105.234 233.691C103.302 231.919 102.848 231.899 101 233.509C97.7499 236.339 95.2466 236.827 92.8214 235.104C91.5886 234.229 89.3196 233.325 87.7781 233.096C86.2366 232.866 84.3875 231.598 83.6706 230.278C82.9537 228.959 81.8346 227.482 81.1839 226.998C80.4693 226.465 80.6361 226.11 81.6062 226.098C85.5351 226.054 98.3591 218.617 100.324 215.244C102.857 210.896 103.409 210.847 105.488 214.785Z" fill="black"/>
<path fill-rule="evenodd" clip-rule="evenodd" d="M122.977 0.491317C113.985 3.82539 105.14 9.80824 105.14 12.5554C105.14 14.3605 87.2152 23.2393 70.6554 29.6362C48.0643 38.3639 34.2193 45.4197 26.8776 51.951C22.1853 56.1252 20.2114 57.2246 19.2149 56.2188C18.2196 55.2143 18.7761 53.9097 21.3744 51.1577C28.5971 43.5054 41.9831 35.9683 68.9038 24.3963C83.9284 17.9382 96.7306 12.157 97.3513 11.5485C99.1088 9.82864 89.0869 10.2139 78.3847 12.2794C65.6075 14.7445 47.3413 21.169 38.8997 26.1665C24.5636 34.6542 9.49853 53.1032 2.57424 70.6509C0.505158 75.8968 0.0402093 79.6545 0.00334635 91.4546C-0.037084 104.505 0.249496 106.488 3.05703 112.579C8.98959 125.453 32.9113 158.058 36.4263 158.062C40.0841 158.066 41.0473 154.109 39.046 147.307C35.5297 135.357 37.8224 132.304 51.5223 130.686L58.5108 129.86L68.0072 117.617C73.231 110.883 83.2328 97.2466 90.2344 87.3128C97.236 77.379 103.327 69.2515 103.769 69.2515C105.569 69.2515 142.365 107.907 151.378 119.267C158.515 128.261 161.979 131.681 164.533 132.246C170.303 133.525 171.272 135.731 168.939 142.278C167.203 147.152 167.136 148.572 168.467 152.448L170.012 156.954L176.638 150.609L183.263 144.262L181.757 139.237C180.928 136.473 177.807 129.331 174.822 123.366C161.505 96.7569 144.409 78.656 121.461 66.8679C114.773 63.4318 109.096 60.4194 108.844 60.1734C108.592 59.9261 109.241 58.4067 110.287 56.7961C114.337 50.5564 139.249 49.1858 158.651 54.1353C170.636 57.1921 184.33 62.4621 187.033 65.0581C189.656 67.576 187.644 69.3739 183.878 67.8773C164.173 60.051 148.569 56.0532 137.71 56.0508C129.635 56.0496 120.599 57.347 120.599 58.5099C120.599 59.0236 124.21 61.4732 128.625 63.9539C139.704 70.1804 147.387 76.102 155.15 84.3952C161.473 91.1521 171.731 104.413 171.731 105.829C171.731 106.201 172.985 108.519 174.515 110.981C176.047 113.443 179.061 120.184 181.213 125.959C183.366 131.736 185.574 136.461 186.12 136.461C187.945 136.461 196.452 123.95 199.994 116.058C203.535 108.169 205.482 100.895 206.806 90.6169C208.041 81.0287 203.153 59.0932 198.629 53.9265C192.882 47.3604 164.101 43.1778 145.68 46.231C141.368 46.9451 134.168 47.8764 129.679 48.2989C118.683 49.3358 119.473 46.9007 131.392 43.0193C138.305 40.769 143.756 40.0153 156.531 39.5437C173.186 38.9292 179.845 39.7837 188.716 43.6758C194.987 46.4266 196.729 44.516 193.202 38.7563C189.863 33.3028 185.388 30.1139 178.449 28.2404C173.758 26.9743 171.372 27.0763 162.521 28.9245C152.378 31.0428 143.849 33.478 139.03 35.6299C124.603 42.0736 122.977 42.5129 122.977 39.9733C122.977 37.2885 143.895 27.7292 155.825 24.9616C161.793 23.5778 169.685 22.4448 173.365 22.4448C177.044 22.4448 180.055 22.0104 180.055 21.4799C180.055 19.4864 172.09 13.1915 165.786 10.2031C151.767 3.55535 128.776 -1.65939 122.977 0.491317Z" fill="#FF7D01"/>
<path d="M13.08 331.54L10.89 340.15C10.87 340.21 10.88 340.27 10.92 340.33C10.98 340.37 11.04 340.39 11.1 340.39H15.12C15.18 340.39 15.23 340.37 15.27 340.33C15.33 340.27 15.35 340.21 15.33 340.15L13.14 331.54C13.14 331.52 13.13 331.51 13.11 331.51C13.09 331.51 13.08 331.52 13.08 331.54ZM5.07 349C4.65 349 4.31 348.83 4.05 348.49C3.81 348.15 3.76 347.78 3.9 347.38L9.96 328.72C10.12 328.24 10.4 327.85 10.8 327.55C11.22 327.25 11.68 327.1 12.18 327.1H14.16C14.68 327.1 15.15 327.25 15.57 327.55C15.99 327.85 16.27 328.24 16.41 328.72L22.44 347.38C22.58 347.78 22.52 348.15 22.26 348.49C22.02 348.83 21.69 349 21.27 349H19.26C18.76 349 18.31 348.85 17.91 348.55C17.51 348.23 17.25 347.83 17.13 347.35L16.41 344.5C16.39 344.34 16.29 344.26 16.11 344.26H10.11C9.95 344.26 9.85 344.34 9.81 344.5L9.09 347.35C8.97 347.83 8.71 348.23 8.31 348.55C7.91 348.85 7.46 349 6.96 349H5.07ZM26.8936 347.38L20.8336 328.72C20.6936 328.32 20.7436 327.95 20.9836 327.61C21.2436 327.27 21.5836 327.1 22.0036 327.1H24.0136C24.5136 327.1 24.9636 327.26 25.3636 327.58C25.7636 327.88 26.0236 328.27 26.1436 328.75L30.0736 344.08C30.0736 344.1 30.0836 344.11 30.1036 344.11C30.1236 344.11 30.1336 344.1 30.1336 344.08L34.1836 328.75C34.3036 328.27 34.5636 327.88 34.9636 327.58C35.3636 327.26 35.8136 327.1 36.3136 327.1H38.2036C38.6236 327.1 38.9536 327.27 39.1936 327.61C39.4536 327.95 39.5136 328.32 39.3736 328.72L33.3136 347.38C33.1736 347.86 32.8936 348.25 32.4736 348.55C32.0736 348.85 31.6136 349 31.0936 349H29.1136C28.6136 349 28.1536 348.85 27.7336 348.55C27.3336 348.25 27.0536 347.86 26.8936 347.38ZM43.8455 349C43.3855 349 42.9855 348.83 42.6455 348.49C42.3055 348.15 42.1355 347.75 42.1355 347.29V328.81C42.1355 328.35 42.3055 327.95 42.6455 327.61C42.9855 327.27 43.3855 327.1 43.8455 327.1H45.3155C46.4555 327.1 47.2855 327.6 47.8055 328.6L54.1055 340.51C54.1055 340.53 54.1155 340.54 54.1355 340.54C54.1555 340.54 54.1655 340.53 54.1655 340.51V328.81C54.1655 328.35 54.3355 327.95 54.6755 327.61C55.0155 327.27 55.4155 327.1 55.8755 327.1H57.3455C57.8055 327.1 58.2055 327.27 58.5455 327.61C58.8855 327.95 59.0555 328.35 59.0555 328.81V347.29C59.0555 347.75 58.8855 348.15 58.5455 348.49C58.2055 348.83 57.8055 349 57.3455 349H55.8755C54.7355 349 53.9055 348.5 53.3855 347.5L47.0855 335.59C47.0855 335.57 47.0755 335.56 47.0555 335.56C47.0355 335.56 47.0255 335.57 47.0255 335.59V347.29C47.0255 347.75 46.8555 348.15 46.5155 348.49C46.1755 348.83 45.7755 349 45.3155 349H43.8455ZM65.2901 349C64.8301 349 64.4301 348.83 64.0901 348.49C63.7701 348.15 63.6101 347.75 63.6101 347.29V328.81C63.6101 328.35 63.7701 327.95 64.0901 327.61C64.4301 327.27 64.8301 327.1 65.2901 327.1H75.9101C76.3701 327.1 76.7601 327.27 77.0801 327.61C77.4201 327.95 77.5901 328.35 77.5901 328.81V329.5C77.5901 329.96 77.4201 330.36 77.0801 330.7C76.7601 331.04 76.3701 331.21 75.9101 331.21H68.9501C68.7901 331.21 68.7101 331.29 68.7101 331.45V335.41C68.7101 335.59 68.7901 335.68 68.9501 335.68H75.3101C75.7701 335.68 76.1601 335.85 76.4801 336.19C76.8201 336.53 76.9901 336.93 76.9901 337.39V337.84C76.9901 338.3 76.8201 338.7 76.4801 339.04C76.1601 339.38 75.7701 339.55 75.3101 339.55H68.9501C68.7901 339.55 68.7101 339.63 68.7101 339.79V344.65C68.7101 344.81 68.7901 344.89 68.9501 344.89H75.9101C76.3701 344.89 76.7601 345.06 77.0801 345.4C77.4201 345.74 77.5901 346.14 77.5901 346.6V347.29C77.5901 347.75 77.4201 348.15 77.0801 348.49C76.7601 348.83 76.3701 349 75.9101 349H65.2901ZM83.542 349C83.082 349 82.682 348.83 82.342 348.49C82.022 348.15 81.862 347.75 81.862 347.29V328.81C81.862 328.35 82.022 327.95 82.342 327.61C82.682 327.27 83.082 327.1 83.542 327.1H94.162C94.622 327.1 95.012 327.27 95.332 327.61C95.672 327.95 95.842 328.35 95.842 328.81V329.5C95.842 329.96 95.672 330.36 95.332 330.7C95.012 331.04 94.622 331.21 94.162 331.21H87.202C87.042 331.21 86.962 331.29 86.962 331.45V335.41C86.962 335.59 87.042 335.68 87.202 335.68H93.562C94.022 335.68 94.412 335.85 94.732 336.19C95.072 336.53 95.242 336.93 95.242 337.39V337.84C95.242 338.3 95.072 338.7 94.732 339.04C94.412 339.38 94.022 339.55 93.562 339.55H87.202C87.042 339.55 86.962 339.63 86.962 339.79V344.65C86.962 344.81 87.042 344.89 87.202 344.89H94.162C94.622 344.89 95.012 345.06 95.332 345.4C95.672 345.74 95.842 346.14 95.842 346.6V347.29C95.842 347.75 95.672 348.15 95.332 348.49C95.012 348.83 94.622 349 94.162 349H83.542ZM101.074 331.33C100.614 331.33 100.214 331.16 99.874 330.82C99.534 330.48 99.364 330.08 99.364 329.62V328.81C99.364 328.35 99.534 327.95 99.874 327.61C100.214 327.27 100.614 327.1 101.074 327.1H114.454C114.914 327.1 115.314 327.27 115.654 327.61C115.994 327.95 116.164 328.35 116.164 328.81V329.62C116.164 330.08 115.994 330.48 115.654 330.82C115.314 331.16 114.914 331.33 114.454 331.33H110.614C110.454 331.33 110.374 331.41 110.374 331.57V347.29C110.374 347.75 110.204 348.15 109.864 348.49C109.524 348.83 109.124 349 108.664 349H106.864C106.404 349 106.004 348.83 105.664 348.49C105.324 348.15 105.154 347.75 105.154 347.29V331.57C105.154 331.41 105.074 331.33 104.914 331.33H101.074ZM137.918 349.3C134.638 349.3 132.058 348.33 130.178 346.39C128.298 344.45 127.358 341.67 127.358 338.05C127.358 334.49 128.268 331.73 130.088 329.77C131.908 327.79 134.448 326.8 137.708 326.8C139.268 326.8 140.628 326.91 141.788 327.13C142.268 327.21 142.658 327.45 142.958 327.85C143.258 328.25 143.408 328.7 143.408 329.2V330.16C143.408 330.58 143.238 330.91 142.898 331.15C142.558 331.39 142.188 331.46 141.788 331.36C140.648 331.06 139.488 330.91 138.308 330.91C136.508 330.91 135.098 331.52 134.078 332.74C133.078 333.96 132.578 335.73 132.578 338.05C132.578 340.33 133.118 342.1 134.198 343.36C135.278 344.62 136.718 345.25 138.518 345.25C139.718 345.25 140.888 345.1 142.028 344.8C142.428 344.7 142.798 344.77 143.138 345.01C143.498 345.25 143.678 345.58 143.678 346V346.9C143.678 347.4 143.518 347.85 143.198 348.25C142.898 348.65 142.508 348.89 142.028 348.97C140.848 349.19 139.478 349.3 137.918 349.3ZM155.902 331.54L153.712 340.15C153.692 340.21 153.702 340.27 153.742 340.33C153.802 340.37 153.862 340.39 153.922 340.39H157.942C158.002 340.39 158.052 340.37 158.092 340.33C158.152 340.27 158.172 340.21 158.152 340.15L155.962 331.54C155.962 331.52 155.952 331.51 155.932 331.51C155.912 331.51 155.902 331.52 155.902 331.54ZM147.892 349C147.472 349 147.132 348.83 146.872 348.49C146.632 348.15 146.582 347.78 146.722 347.38L152.782 328.72C152.942 328.24 153.222 327.85 153.622 327.55C154.042 327.25 154.502 327.1 155.002 327.1H156.982C157.502 327.1 157.972 327.25 158.392 327.55C158.812 327.85 159.092 328.24 159.232 328.72L165.262 347.38C165.402 347.78 165.342 348.15 165.082 348.49C164.842 348.83 164.512 349 164.092 349H162.082C161.582 349 161.132 348.85 160.732 348.55C160.332 348.23 160.072 347.83 159.952 347.35L159.232 344.5C159.212 344.34 159.112 344.26 158.932 344.26H152.932C152.772 344.26 152.672 344.34 152.632 344.5L151.912 347.35C151.792 347.83 151.532 348.23 151.132 348.55C150.732 348.85 150.282 349 149.782 349H147.892ZM169.734 349C169.274 349 168.874 348.83 168.534 348.49C168.194 348.15 168.024 347.75 168.024 347.29V328.81C168.024 328.35 168.194 327.95 168.534 327.61C168.874 327.27 169.274 327.1 169.734 327.1H180.024C180.484 327.1 180.884 327.27 181.224 327.61C181.564 327.95 181.734 328.35 181.734 328.81V329.5C181.734 329.96 181.564 330.36 181.224 330.7C180.884 331.04 180.484 331.21 180.024 331.21H173.394C173.214 331.21 173.124 331.29 173.124 331.45V335.92C173.124 336.1 173.214 336.19 173.394 336.19H179.424C179.884 336.19 180.284 336.36 180.624 336.7C180.964 337.02 181.134 337.41 181.134 337.87V338.35C181.134 338.81 180.964 339.21 180.624 339.55C180.284 339.87 179.884 340.03 179.424 340.03H173.394C173.214 340.03 173.124 340.12 173.124 340.3V347.29C173.124 347.75 172.954 348.15 172.614 348.49C172.294 348.83 171.904 349 171.444 349H169.734ZM187.517 349C187.057 349 186.657 348.83 186.317 348.49C185.997 348.15 185.837 347.75 185.837 347.29V328.81C185.837 328.35 185.997 327.95 186.317 327.61C186.657 327.27 187.057 327.1 187.517 327.1H198.137C198.597 327.1 198.987 327.27 199.307 327.61C199.647 327.95 199.817 328.35 199.817 328.81V329.5C199.817 329.96 199.647 330.36 199.307 330.7C198.987 331.04 198.597 331.21 198.137 331.21H191.177C191.017 331.21 190.937 331.29 190.937 331.45V335.41C190.937 335.59 191.017 335.68 191.177 335.68H197.537C197.997 335.68 198.387 335.85 198.707 336.19C199.047 336.53 199.217 336.93 199.217 337.39V337.84C199.217 338.3 199.047 338.7 198.707 339.04C198.387 339.38 197.997 339.55 197.537 339.55H191.177C191.017 339.55 190.937 339.63 190.937 339.79V344.65C190.937 344.81 191.017 344.89 191.177 344.89H198.137C198.597 344.89 198.987 345.06 199.307 345.4C199.647 345.74 199.817 346.14 199.817 346.6V347.29C199.817 347.75 199.647 348.15 199.307 348.49C198.987 348.83 198.597 349 198.137 349H187.517Z" fill="black"/>
</svg>
