<?xml version="1.0" encoding="UTF-8"?>
<svg version="1.1" xmlns="http://www.w3.org/2000/svg" width="409" height="409">
<path d="M0 0 C1.33263885 0.00406357 1.33263885 0.00406357 2.69219971 0.00820923 C17.0440802 0.07428543 30.74329542 1.13743343 44.75 4.4375 C45.54809082 4.60878418 46.34618164 4.78006836 47.16845703 4.95654297 C82.62308757 12.57120573 115.1451912 31.03721874 141.22314453 55.97802734 C142.25315775 56.96258427 143.28812459 57.9419814 144.32763672 58.91650391 C158.20185633 71.95548622 169.17967852 87.02582833 178.75 103.4375 C179.27303711 104.32091064 179.27303711 104.32091064 179.80664062 105.22216797 C188.53998547 120.12145466 194.68777948 136.47046132 199.125 153.125 C199.4645874 154.38473633 199.4645874 154.38473633 199.81103516 155.66992188 C203.86715893 171.84565817 205.30765457 188.05755935 205.1875 204.6875 C205.18479095 205.5759259 205.18208191 206.46435181 205.17929077 207.37969971 C205.11321457 221.7315802 204.05006657 235.43079542 200.75 249.4375 C200.57871582 250.23559082 200.40743164 251.03368164 200.23095703 251.85595703 C192.61629427 287.31058757 174.15028126 319.8326912 149.20947266 345.91064453 C148.22491573 346.94065775 147.2455186 347.97562459 146.27099609 349.01513672 C133.23201378 362.88935633 118.16167167 373.86717852 101.75 383.4375 C100.86658936 383.96053711 100.86658936 383.96053711 99.96533203 384.49414062 C85.06604534 393.22748547 68.71703868 399.37527948 52.0625 403.8125 C50.80276367 404.1520874 50.80276367 404.1520874 49.51757812 404.49853516 C33.34184183 408.55465893 17.12994065 409.99515457 0.5 409.875 C-0.83263885 409.87093643 -0.83263885 409.87093643 -2.19219971 409.86679077 C-16.5440802 409.80071457 -30.24329542 408.73756657 -44.25 405.4375 C-45.04809082 405.26621582 -45.84618164 405.09493164 -46.66845703 404.91845703 C-82.12308757 397.30379427 -114.6451912 378.83778126 -140.72314453 353.89697266 C-141.75315775 352.91241573 -142.78812459 351.9330186 -143.82763672 350.95849609 C-157.70185633 337.91951378 -168.67967852 322.84917167 -178.25 306.4375 C-178.77303711 305.55408936 -178.77303711 305.55408936 -179.30664062 304.65283203 C-188.03998547 289.75354534 -194.18777948 273.40453868 -198.625 256.75 C-198.8513916 255.91017578 -199.0777832 255.07035156 -199.31103516 254.20507812 C-203.36715893 238.02934183 -204.80765457 221.81744065 -204.6875 205.1875 C-204.68479095 204.2990741 -204.68208191 203.41064819 -204.67929077 202.49530029 C-204.61321457 188.1434198 -203.55006657 174.44420458 -200.25 160.4375 C-200.07871582 159.63940918 -199.90743164 158.84131836 -199.73095703 158.01904297 C-192.11629427 122.56441243 -173.65028126 90.0423088 -148.70947266 63.96435547 C-147.72491573 62.93434225 -146.7455186 61.89937541 -145.77099609 60.85986328 C-132.73201378 46.98564367 -117.66167167 36.00782148 -101.25 26.4375 C-100.66105957 26.08880859 -100.07211914 25.74011719 -99.46533203 25.38085938 C-84.56604534 16.64751453 -68.21703868 10.49972052 -51.5625 6.0625 C-50.72267578 5.8361084 -49.88285156 5.6097168 -49.01757812 5.37646484 C-32.84184183 1.32034107 -16.62994065 -0.12015457 0 0 Z " fill="#FDB720" transform="translate(204.25,-0.4375)"/>
<path d="M0 0 C1.33263885 0.00406357 1.33263885 0.00406357 2.69219971 0.00820923 C17.0440802 0.07428543 30.74329542 1.13743343 44.75 4.4375 C45.54809082 4.60878418 46.34618164 4.78006836 47.16845703 4.95654297 C82.62308757 12.57120573 115.1451912 31.03721874 141.22314453 55.97802734 C142.25315775 56.96258427 143.28812459 57.9419814 144.32763672 58.91650391 C158.20185633 71.95548622 169.17967852 87.02582833 178.75 103.4375 C179.27303711 104.32091064 179.27303711 104.32091064 179.80664062 105.22216797 C188.53998547 120.12145466 194.68777948 136.47046132 199.125 153.125 C199.4645874 154.38473633 199.4645874 154.38473633 199.81103516 155.66992188 C203.86715893 171.84565817 205.30765457 188.05755935 205.1875 204.6875 C205.18479095 205.5759259 205.18208191 206.46435181 205.17929077 207.37969971 C205.11321457 221.7315802 204.05006657 235.43079542 200.75 249.4375 C200.57871582 250.23559082 200.40743164 251.03368164 200.23095703 251.85595703 C192.61629427 287.31058757 174.15028126 319.8326912 149.20947266 345.91064453 C148.22491573 346.94065775 147.2455186 347.97562459 146.27099609 349.01513672 C133.23201378 362.88935633 118.16167167 373.86717852 101.75 383.4375 C100.86658936 383.96053711 100.86658936 383.96053711 99.96533203 384.49414062 C85.06604534 393.22748547 68.71703868 399.37527948 52.0625 403.8125 C50.80276367 404.1520874 50.80276367 404.1520874 49.51757812 404.49853516 C33.34184183 408.55465893 17.12994065 409.99515457 0.5 409.875 C-0.83263885 409.87093643 -0.83263885 409.87093643 -2.19219971 409.86679077 C-16.5440802 409.80071457 -30.24329542 408.73756657 -44.25 405.4375 C-45.04809082 405.26621582 -45.84618164 405.09493164 -46.66845703 404.91845703 C-82.12308757 397.30379427 -114.6451912 378.83778126 -140.72314453 353.89697266 C-141.75315775 352.91241573 -142.78812459 351.9330186 -143.82763672 350.95849609 C-157.70185633 337.91951378 -168.67967852 322.84917167 -178.25 306.4375 C-178.77303711 305.55408936 -178.77303711 305.55408936 -179.30664062 304.65283203 C-188.03998547 289.75354534 -194.18777948 273.40453868 -198.625 256.75 C-198.8513916 255.91017578 -199.0777832 255.07035156 -199.31103516 254.20507812 C-203.36715893 238.02934183 -204.80765457 221.81744065 -204.6875 205.1875 C-204.68479095 204.2990741 -204.68208191 203.41064819 -204.67929077 202.49530029 C-204.61321457 188.1434198 -203.55006657 174.44420458 -200.25 160.4375 C-200.07871582 159.63940918 -199.90743164 158.84131836 -199.73095703 158.01904297 C-192.11629427 122.56441243 -173.65028126 90.0423088 -148.70947266 63.96435547 C-147.72491573 62.93434225 -146.7455186 61.89937541 -145.77099609 60.85986328 C-132.73201378 46.98564367 -117.66167167 36.00782148 -101.25 26.4375 C-100.66105957 26.08880859 -100.07211914 25.74011719 -99.46533203 25.38085938 C-84.56604534 16.64751453 -68.21703868 10.49972052 -51.5625 6.0625 C-50.72267578 5.8361084 -49.88285156 5.6097168 -49.01757812 5.37646484 C-32.84184183 1.32034107 -16.62994065 -0.12015457 0 0 Z M-39.25 39.4375 C-40.29929688 39.68757813 -41.34859375 39.93765625 -42.4296875 40.1953125 C-45.06971308 40.86105808 -47.65197169 41.62393722 -50.25 42.4375 C-51.38050781 42.77265625 -52.51101562 43.1078125 -53.67578125 43.453125 C-84.38679196 53.02041806 -113.91306447 73.71277966 -133.25 99.4375 C-133.84675537 100.22181396 -133.84675537 100.22181396 -134.45556641 101.02197266 C-156.552791 130.22341616 -169.66190688 164.22618598 -169.56567383 201.03710938 C-169.56253052 203.53821162 -169.58600386 206.03810677 -169.61132812 208.5390625 C-169.78944732 254.24557039 -150.06899142 296.18695759 -118.25 328.4375 C-85.74818199 360.61196157 -41.28594813 377.02886575 4.08032227 376.86181641 C48.2675058 375.96378867 87.29210034 357.71283241 119.75 328.4375 C120.49894531 327.76203125 121.24789063 327.0865625 122.01953125 326.390625 C144.36963063 305.08747528 161.56116616 273.56494028 167.75 243.4375 C168.00048096 242.34590576 168.25096191 241.25431152 168.5090332 240.12963867 C170.74791006 229.63391101 171.21441875 219.50754011 171.14111328 208.79272461 C171.1250375 206.00649938 171.14105101 203.22172838 171.16015625 200.43554688 C171.20488095 164.96493709 158.64449764 131.90804518 137.75 103.4375 C137.03714844 102.46167969 136.32429688 101.48585938 135.58984375 100.48046875 C114.13911208 72.91276543 84.8611275 53.16705891 51.75 42.4375 C50.74710938 42.10105469 49.74421875 41.76460937 48.7109375 41.41796875 C21.20002741 32.81678257 -11.39442241 32.12175301 -39.25 39.4375 Z " fill="#FDDF9E" transform="translate(204.25,-0.4375)"/>
<path d="M0 0 C5.01791684 2.41935276 8.49958655 5.9991731 11 11 C11.09297087 13.56333475 11.12580976 16.09924241 11.11352539 18.66259766 C11.11367142 19.45292892 11.11381744 20.24326019 11.1139679 21.05754089 C11.11326983 23.67640911 11.10548239 26.29520667 11.09765625 28.9140625 C11.09579169 30.72724366 11.09436797 32.54042533 11.09336853 34.35360718 C11.08954632 39.13103623 11.07971855 43.90843499 11.06866455 48.68585205 C11.05844407 53.55879303 11.05386954 58.4317389 11.04882812 63.3046875 C11.03809603 72.86980499 11.02102314 82.43489998 11 92 C11.77061264 92.30084503 12.54122528 92.60169006 13.33518982 92.91165161 C16.20897829 94.08534986 18.78617319 95.49992735 21.47265625 97.0546875 C22.52710938 97.66344727 23.5815625 98.27220703 24.66796875 98.89941406 C25.78816406 99.55135742 26.90835938 100.20330078 28.0625 100.875 C29.23432608 101.55444636 30.40620162 102.23380742 31.578125 102.91308594 C40.98179663 108.37256239 50.3270217 113.92539819 59.62109375 119.56933594 C62.09978977 121.06001314 64.59480607 122.52011693 67.09375 123.9765625 C68.72921571 124.94262532 70.3646342 125.90876806 72 126.875 C72.74830078 127.30329102 73.49660156 127.73158203 74.26757812 128.17285156 C79.48375072 131.28370148 82.93429607 134.45875466 84.75 140.4921875 C85.39817833 146.67013725 84.72050937 150.92977902 81 156 C77.44944513 159.459515 74.00126716 161.9010805 68.93334961 162.06811523 C61.3119951 161.64199993 56.13775992 158.73720704 49.75 154.75 C48.70859863 154.12101807 47.66719727 153.49203613 46.59423828 152.84399414 C44.43852673 151.54172778 42.28699171 150.23252321 40.13964844 148.91650391 C35.41761402 146.0340801 30.64486145 143.23975594 25.875 140.4375 C24.07380074 139.37179994 22.27301993 138.30539231 20.47265625 137.23828125 C16.69284569 134.99958053 12.90854704 132.76871444 9.12109375 130.54296875 C4.50649758 127.83089839 -0.09770102 125.10190567 -4.69628906 122.36279297 C-6.67111306 121.19455774 -8.65601359 120.04795019 -10.6484375 118.91015625 C-11.61007813 118.34167969 -12.57171875 117.77320313 -13.5625 117.1875 C-14.32691406 116.74792969 -15.09132812 116.30835938 -15.87890625 115.85546875 C-20.25996455 112.02305126 -23.20156597 107.35628134 -23.64164734 101.48522949 C-23.67399172 99.82313496 -23.67962247 98.1603714 -23.6628418 96.49804688 C-23.67320969 95.5831398 -23.68357758 94.66823273 -23.69425964 93.7256012 C-23.7212058 90.72285177 -23.71169495 87.72157554 -23.69921875 84.71875 C-23.70513226 82.61942134 -23.71238091 80.52009606 -23.72090149 78.42077637 C-23.73276004 74.02952449 -23.72610933 69.63878018 -23.70678711 65.24755859 C-23.68389554 59.63179829 -23.710695 54.0175506 -23.75184917 48.40193939 C-23.77747313 44.06945593 -23.77483483 39.73733225 -23.76395607 35.40480042 C-23.7624734 33.33482998 -23.77011269 31.26483142 -23.78720665 29.19493103 C-23.8072617 26.29634902 -23.78871775 23.40041488 -23.76049805 20.50195312 C-23.77421448 19.65496353 -23.78793091 18.80797394 -23.80206299 17.93531799 C-23.67667641 11.46266952 -21.43123348 7.65797568 -17 3 C-11.81404931 -1.08565538 -6.33718161 -0.77387564 0 0 Z " fill="#FDE09F" transform="translate(211,103)"/>
</svg>
