<svg width="800" height="800" viewBox="0 0 800 800" fill="none" xmlns="http://www.w3.org/2000/svg">
<path d="M567.667 326C572.083 321.261 574.487 314.993 574.372 308.516C574.258 302.039 571.634 295.86 567.054 291.279C562.474 286.699 556.294 284.075 549.817 283.961C543.341 283.847 537.072 286.251 532.333 290.667L350 473L267.667 390.667C262.927 386.251 256.659 383.847 250.183 383.961C243.706 384.075 237.526 386.699 232.946 391.279C228.365 395.86 225.742 402.039 225.627 408.516C225.513 414.993 227.917 421.261 232.333 426L332.333 526C337.021 530.682 343.375 533.311 350 533.311C356.625 533.311 362.979 530.682 367.667 526L567.667 326Z" fill="#2BA468"/>
<path fill-rule="evenodd" clip-rule="evenodd" d="M471.2 40.0005C450.553 24.8469 425.611 16.6758 400 16.6758C374.389 16.6758 349.447 24.8469 328.8 40.0005L282.967 73.6672C273.826 80.3663 263.203 84.7575 252 86.4672L195.8 95.1005C170.488 98.9816 147.074 110.837 128.963 128.941C110.852 147.046 98.9895 170.456 95.1 195.767L86.4667 252C84.7571 263.203 80.3658 273.827 73.6667 282.967L40 328.8C24.8464 349.447 16.6753 374.39 16.6753 400C16.6753 425.611 24.8464 450.554 40 471.2L73.6667 517.034C80.3333 526.167 84.7667 536.8 86.4667 548L95.1 604.2C98.9811 629.513 110.836 652.927 128.941 671.038C147.045 689.148 170.456 701.011 195.767 704.9L252 713.534C263.2 715.234 273.833 719.634 282.967 726.334L328.8 760C349.447 775.154 374.389 783.325 400 783.325C425.611 783.325 450.553 775.154 471.2 760L517.033 726.334C526.174 719.635 536.797 715.243 548 713.534L604.2 704.9C629.512 701.019 652.927 689.164 671.037 671.06C689.148 652.955 701.011 629.545 704.9 604.234L713.533 548C715.243 536.798 719.634 526.174 726.333 517.034L760 471.2C775.154 450.554 783.325 425.611 783.325 400C783.325 374.39 775.154 349.447 760 328.8L726.333 282.967C719.634 273.827 715.243 263.203 713.533 252L704.9 195.8C701.019 170.488 689.164 147.074 671.059 128.963C652.955 110.853 629.544 98.9899 604.233 95.1005L548 86.4672C536.797 84.7575 526.174 80.3663 517.033 73.6672L471.2 40.0005ZM358.4 80.3005C370.465 71.4506 385.037 66.6789 400 66.6789C414.963 66.6789 429.535 71.4506 441.6 80.3005L487.467 113.967C503.097 125.439 521.269 132.963 540.433 135.9L596.633 144.5C611.428 146.775 625.11 153.711 635.692 164.298C646.273 174.885 653.2 188.572 655.467 203.367L664.133 259.567C667.056 278.741 674.569 296.924 686.033 312.567L719.7 358.4C728.55 370.465 733.322 385.038 733.322 400C733.322 414.963 728.55 429.536 719.7 441.6L686.033 487.467C674.562 503.098 667.037 521.269 664.1 540.434L655.5 596.634C653.225 611.428 646.29 625.111 635.703 635.692C625.116 646.273 611.429 653.201 596.633 655.467L540.433 664.134C521.26 667.056 503.077 674.569 487.433 686.034L441.6 719.7C429.535 728.55 414.963 733.322 400 733.322C385.037 733.322 370.465 728.55 358.4 719.7L312.533 686.034C296.903 674.562 278.731 667.038 259.567 664.101L203.367 655.501C188.566 653.232 174.876 646.3 164.288 635.712C153.701 625.124 146.768 611.434 144.5 596.634L135.9 540.434C132.968 521.257 125.443 503.074 113.967 487.434L80.3 441.6C71.4501 429.536 66.6784 414.963 66.6784 400C66.6784 385.038 71.4501 370.465 80.3 358.4L113.967 312.534C125.438 296.903 132.963 278.732 135.9 259.567L144.5 203.367C146.768 188.567 153.701 174.877 164.288 164.289C174.876 153.701 188.566 146.769 203.367 144.5L259.567 135.9C278.743 132.968 296.926 125.444 312.567 113.967L358.4 80.3005Z" fill="#2BA468"/>
</svg>
